<svg xmlns="http://www.w3.org/2000/svg" viewBox="0 0 461.01 134.69"><defs><style>.cls-1{fill:#1d1d1b;}.cls-2{fill:#d20a11;}.cls-3{fill:#f9b000;}.cls-4{fill:#fff;}</style></defs><g id="Layer_2" data-name="Layer 2"><g id="Layer_1-2" data-name="Layer 1"><path class="cls-1" d="M174.78,36.57h6.62v7.61h-6.62v11.3c0,3,.69,4.31,3.81,4.31a20.41,20.41,0,0,0,2.81-.19V69c-2.5,0-5.31.37-7.93.37-5.24,0-11.05-.81-11.05-9.67V44.18h-5.5V36.57h5.5V26.7h12.36Z"/><path class="cls-1" d="M185.33,36.57H197.2v5.18h.12c2-3.87,4.62-6,9.12-6a14.18,14.18,0,0,1,3.62.5V47.18a12.44,12.44,0,0,0-4.87-.81c-4.87,0-7.49,2.87-7.49,9.8V69H185.33Z"/><path class="cls-1" d="M225.67,33.07H213.31V24.39h12.36Zm-12.36,3.5h12.36V69H213.31Z"/><path class="cls-1" d="M232.73,36.57h11.92v3.55h.13c1.56-2.06,3.43-4.37,9.49-4.37,9.17,0,13.61,9.06,13.61,17.17,0,7.62-2.94,16.86-13.8,16.86a10.59,10.59,0,0,1-8.87-4.37h-.12v14H232.73Zm17.35,24.22c4.44,0,5.44-4.18,5.44-8s-1-8.06-5.44-8.06-5.43,4.19-5.43,8.06S245.65,60.79,250.08,60.79Z"/><path class="cls-1" d="M273.44,24.39H285.8V69H273.44Z"/><path class="cls-1" d="M303.28,55.55c.32,3.68,2.44,6.3,6.31,6.3,2,0,4.18-.75,5.18-2.31h11.55c-2.5,7-9.3,10.24-16.67,10.24-10.36,0-18.17-6.12-18.17-16.92,0-9.43,6.87-17.11,17.11-17.11,12.86,0,18.42,7.18,18.42,19.8Zm11.87-6.43a5.33,5.33,0,0,0-5.44-5.44c-3.68,0-5.8,1.94-6.36,5.44Z"/><path class="cls-1" d="M332.57,36.75h3.62v6.12h.13a10.63,10.63,0,0,1,4.46-5.18,13.27,13.27,0,0,1,7-1.88,14,14,0,0,1,6.4,1.38,13,13,0,0,1,4.53,3.71,15.88,15.88,0,0,1,2.69,5.43,24.9,24.9,0,0,1,0,13.05,15.93,15.93,0,0,1-2.69,5.44,13,13,0,0,1-4.53,3.71,14,14,0,0,1-6.4,1.38,14.26,14.26,0,0,1-3.52-.44,11.86,11.86,0,0,1-3.22-1.34,11.55,11.55,0,0,1-2.65-2.22,9.13,9.13,0,0,1-1.78-3.06h-.13V80.9h-3.93Zm25.79,16.11a21,21,0,0,0-.6-5,13.7,13.7,0,0,0-1.87-4.4,10.18,10.18,0,0,0-3.28-3.15,9.07,9.07,0,0,0-4.81-1.22,11.8,11.8,0,0,0-5.43,1.13,9.44,9.44,0,0,0-3.49,3A11.86,11.86,0,0,0,337,47.61a25.54,25.54,0,0,0-.53,5.25,20.9,20.9,0,0,0,.6,5A12.93,12.93,0,0,0,339,62.23a10.43,10.43,0,0,0,3.5,3.15,10.56,10.56,0,0,0,5.27,1.22,9.07,9.07,0,0,0,4.81-1.22,10.18,10.18,0,0,0,3.28-3.15,13.66,13.66,0,0,0,1.87-4.41A20.9,20.9,0,0,0,358.36,52.86Z"/><path class="cls-1" d="M382,35.81a14.78,14.78,0,0,1,6.53,1.38,14.14,14.14,0,0,1,4.77,3.68,16,16,0,0,1,2.94,5.43,22.12,22.12,0,0,1,0,13.15,16,16,0,0,1-2.94,5.4,14.14,14.14,0,0,1-4.77,3.68,16.12,16.12,0,0,1-13.05,0,14.08,14.08,0,0,1-4.78-3.68,15.84,15.84,0,0,1-2.93-5.4,22.12,22.12,0,0,1,0-13.15,15.79,15.79,0,0,1,2.93-5.43,14.08,14.08,0,0,1,4.78-3.68A14.74,14.74,0,0,1,382,35.81Zm0,3.31a9.94,9.94,0,0,0-4.93,1.19,10.81,10.81,0,0,0-3.53,3.12,14.37,14.37,0,0,0-2.12,4.4,17.93,17.93,0,0,0,0,10.06,14.37,14.37,0,0,0,2.12,4.4,10.81,10.81,0,0,0,3.53,3.12,10.83,10.83,0,0,0,9.87,0,10.78,10.78,0,0,0,3.52-3.12,14.16,14.16,0,0,0,2.13-4.4,18.17,18.17,0,0,0,0-10.06,14.16,14.16,0,0,0-2.13-4.4A10.78,10.78,0,0,0,387,40.31,10,10,0,0,0,382,39.12Z"/><path class="cls-1" d="M403.19,24.45h3.93v6.24h-3.93Zm0,12.3h3.93V69h-3.93Z"/><path class="cls-1" d="M414.62,36.75h3.93v5.56h.13a9.17,9.17,0,0,1,1.59-2.66,9.89,9.89,0,0,1,2.4-2.06,12.24,12.24,0,0,1,3-1.31,11.93,11.93,0,0,1,3.31-.47,15.7,15.7,0,0,1,5.65.88,8.86,8.86,0,0,1,3.65,2.46,9.23,9.23,0,0,1,1.94,3.91,22.16,22.16,0,0,1,.56,5.18V69h-3.93V48.86a18.66,18.66,0,0,0-.38-3.84,8.28,8.28,0,0,0-1.31-3.09,6.39,6.39,0,0,0-2.53-2.06,9.26,9.26,0,0,0-4-.75,10.06,10.06,0,0,0-4.22.84,9.6,9.6,0,0,0-3.15,2.31,10,10,0,0,0-2,3.5,14.75,14.75,0,0,0-.75,4.4V69h-3.93Z"/><path class="cls-1" d="M454.45,36.75H461v3.31h-6.56V61.79a7.13,7.13,0,0,0,.53,3c.36.73,1.24,1.13,2.66,1.21a31.7,31.7,0,0,0,3.37-.18v3.37c-.58,0-1.17,0-1.75.06s-1.16.06-1.75.06q-3.93,0-5.49-1.56t-1.5-5.68v-22H444.9V36.75h5.62V27.07h3.93Z"/><path class="cls-1" d="M226.59,95.2a6.9,6.9,0,0,0-.87-2.16,5.78,5.78,0,0,0-1.47-1.6,6.8,6.8,0,0,0-1.91-1,7.28,7.28,0,0,0-2.2-.34,7.54,7.54,0,0,0-3.58.8A7.17,7.17,0,0,0,214.1,93a9,9,0,0,0-1.41,3,12.45,12.45,0,0,0-.46,3.37,12.31,12.31,0,0,0,.46,3.38,8.9,8.9,0,0,0,1.41,3,7.17,7.17,0,0,0,2.46,2.1,7.54,7.54,0,0,0,3.58.8,6.52,6.52,0,0,0,2.64-.53,6.34,6.34,0,0,0,2-1.44,7.29,7.29,0,0,0,1.38-2.14,8.7,8.7,0,0,0,.68-2.63h2a11.39,11.39,0,0,1-.91,3.5,8.77,8.77,0,0,1-1.82,2.66,7.78,7.78,0,0,1-2.64,1.7,9.27,9.27,0,0,1-3.37.58,9.85,9.85,0,0,1-4.33-.89A8.89,8.89,0,0,1,212.7,107a10.3,10.3,0,0,1-1.85-3.5,14.07,14.07,0,0,1,0-8.26,10.3,10.3,0,0,1,1.85-3.5,8.87,8.87,0,0,1,3.11-2.41,9.85,9.85,0,0,1,4.33-.9,9.68,9.68,0,0,1,2.93.44,8.43,8.43,0,0,1,2.59,1.31,7.75,7.75,0,0,1,1.94,2.13,7.18,7.18,0,0,1,1,2.91Z"/><path class="cls-1" d="M238.09,88.85h2.23l8.24,21h-2.15l-2.56-6.53h-9.56l-2.53,6.53h-2.14Zm-3.18,12.77h8.27l-4.06-10.77Z"/><path class="cls-1" d="M250.47,88.85h2v19.3h11.77v1.7H250.47Z"/><path class="cls-1" d="M266.42,88.85h2v21h-2Z"/><path class="cls-1" d="M272.8,88.85h8.88a12.53,12.53,0,0,1,2.55.25,6.19,6.19,0,0,1,2.14.85,4.46,4.46,0,0,1,1.49,1.59,5,5,0,0,1,.56,2.46,4.84,4.84,0,0,1-.27,1.6A4.55,4.55,0,0,1,287.4,97a4.88,4.88,0,0,1-1.14,1.08,4.19,4.19,0,0,1-1.49.61v.06a5,5,0,0,1,3.24,1.66,5.15,5.15,0,0,1,1.2,3.46,8.35,8.35,0,0,1-.22,1.78,4.59,4.59,0,0,1-1,2,5.91,5.91,0,0,1-2.27,1.59,10.48,10.48,0,0,1-4.06.64H272.8Zm2,9.21h6.88a7.14,7.14,0,0,0,2.09-.28,4.26,4.26,0,0,0,1.47-.77,3.08,3.08,0,0,0,.88-1.13,3.23,3.23,0,0,0,.3-1.38q0-3.94-4.74-3.94H274.8Zm0,10.09h6.88a11.94,11.94,0,0,0,2.12-.19,4.8,4.8,0,0,0,1.77-.7,3.5,3.5,0,0,0,1.2-1.33,4.43,4.43,0,0,0,.44-2.11,3.47,3.47,0,0,0-1.44-3,7,7,0,0,0-4.09-1H274.8Z"/><path class="cls-1" d="M292.42,88.85H302a9.42,9.42,0,0,1,2.46.32,6.1,6.1,0,0,1,2,1,4.93,4.93,0,0,1,1.38,1.7,5.57,5.57,0,0,1,.51,2.46,5.88,5.88,0,0,1-1,3.47,4.65,4.65,0,0,1-3.06,1.88v.06a4.59,4.59,0,0,1,1.71.55,3.34,3.34,0,0,1,1.1,1,4.11,4.11,0,0,1,.62,1.43,10.24,10.24,0,0,1,.25,1.75q0,.52.06,1.29c0,.51.06,1,.12,1.55a9.34,9.34,0,0,0,.28,1.47,2.74,2.74,0,0,0,.51,1.07h-2.2a2.17,2.17,0,0,1-.28-.72,8.06,8.06,0,0,1-.17-.88c0-.3-.06-.6-.07-.9s0-.55,0-.76c0-.73-.11-1.46-.19-2.21a6.19,6.19,0,0,0-.56-2,3.5,3.5,0,0,0-1.24-1.4,3.75,3.75,0,0,0-2.22-.47h-7.59v9.32h-2Zm2,10h7.47a5.29,5.29,0,0,0,1.74-.28,4.08,4.08,0,0,0,1.44-.81,3.87,3.87,0,0,0,1-1.28,3.78,3.78,0,0,0,.37-1.72,4.14,4.14,0,0,0-1.13-3.06,4.67,4.67,0,0,0-3.4-1.11h-7.47Z"/><path class="cls-1" d="M318.19,88.85h2.23l8.24,21h-2.15L324,103.32H314.4l-2.54,6.53h-2.14ZM315,101.62h8.27l-4.06-10.77Z"/><path class="cls-1" d="M326.31,88.85H343v1.71h-7.33v19.29h-2V90.56h-7.32Z"/><path class="cls-1" d="M345.08,88.85h2v21h-2Z"/><path class="cls-1" d="M350.34,99.35a13.86,13.86,0,0,1,.62-4.13,10.3,10.3,0,0,1,1.85-3.5,8.87,8.87,0,0,1,3.11-2.41,10.87,10.87,0,0,1,8.66,0,8.88,8.88,0,0,1,3.09,2.41,10.3,10.3,0,0,1,1.85,3.5,14.07,14.07,0,0,1,0,8.26,10.3,10.3,0,0,1-1.85,3.5,8.91,8.91,0,0,1-3.09,2.42,11,11,0,0,1-8.66,0,8.89,8.89,0,0,1-3.11-2.42,10.3,10.3,0,0,1-1.85-3.5A13.86,13.86,0,0,1,350.34,99.35Zm2,0a12.31,12.31,0,0,0,.46,3.38,8.9,8.9,0,0,0,1.41,3,7.17,7.17,0,0,0,2.46,2.1,8.39,8.39,0,0,0,7.15,0,7.14,7.14,0,0,0,2.45-2.1,8.9,8.9,0,0,0,1.41-3,12.31,12.31,0,0,0,.46-3.38,12.45,12.45,0,0,0-.46-3.37,9,9,0,0,0-1.41-3,7.14,7.14,0,0,0-2.45-2.1,8.39,8.39,0,0,0-7.15,0,7.17,7.17,0,0,0-2.46,2.1,9,9,0,0,0-1.41,3A12.45,12.45,0,0,0,352.34,99.35Z"/><path class="cls-1" d="M373.23,88.85h2.23l12.24,17.77h.06V88.85h2v21h-2.24L375.29,92.08h-.06v17.77h-2Z"/><path class="cls-1" d="M394.91,102.94a6,6,0,0,0,.5,2.71,4.48,4.48,0,0,0,1.45,1.73,6.17,6.17,0,0,0,2.2.93,12.23,12.23,0,0,0,2.7.28,7.57,7.57,0,0,0,1.8-.24,6,6,0,0,0,1.81-.75,4.6,4.6,0,0,0,1.39-1.32,3.38,3.38,0,0,0,.56-2,2.9,2.9,0,0,0-.39-1.53,3.82,3.82,0,0,0-1-1.09,6.6,6.6,0,0,0-1.4-.72q-.76-.27-1.5-.45l-4.68-1.15a12.11,12.11,0,0,1-1.79-.59,5,5,0,0,1-1.5-.94,4.39,4.39,0,0,1-1-1.44,5,5,0,0,1-.4-2.09,6.48,6.48,0,0,1,.3-1.79,4.91,4.91,0,0,1,1.1-2A6.52,6.52,0,0,1,397.2,89a8.94,8.94,0,0,1,3.62-.63,10.71,10.71,0,0,1,3,.41,7.46,7.46,0,0,1,2.49,1.24,5.88,5.88,0,0,1,1.69,2,6.22,6.22,0,0,1,.62,2.84h-2a5.13,5.13,0,0,0-.53-2.11,4.71,4.71,0,0,0-1.27-1.5,5.81,5.81,0,0,0-1.81-.91,7.41,7.41,0,0,0-2.13-.31,9.1,9.1,0,0,0-2,.22,5.1,5.1,0,0,0-1.68.71A3.58,3.58,0,0,0,396,92.32a4,4,0,0,0-.45,2,3.14,3.14,0,0,0,.25,1.28,2.53,2.53,0,0,0,.7.91,4.08,4.08,0,0,0,1,.62,6.71,6.71,0,0,0,1.22.4l5.12,1.26a15.68,15.68,0,0,1,2.1.72,7.15,7.15,0,0,1,1.74,1.06,4.54,4.54,0,0,1,1.18,1.55,5.23,5.23,0,0,1,.42,2.2,7.54,7.54,0,0,1-.07.94,4.92,4.92,0,0,1-.35,1.25,6.32,6.32,0,0,1-.8,1.34,5.1,5.1,0,0,1-1.41,1.24,8.15,8.15,0,0,1-2.22.9,13.28,13.28,0,0,1-3.18.33,13.45,13.45,0,0,1-3.44-.42,7.39,7.39,0,0,1-2.71-1.33,5.83,5.83,0,0,1-1.72-2.29,7.45,7.45,0,0,1-.51-3.31Z"/><circle class="cls-2" cx="67.34" cy="67.34" r="67.34"/><path class="cls-3" d="M98,63.05H36.71a19.79,19.79,0,0,1,0-39.57H98a19.79,19.79,0,0,1,0,39.57"/><path class="cls-4" d="M67.39,23.49H36.71a19.78,19.78,0,0,0,0,39.56H47.56v41.48a19.79,19.79,0,1,0,39.57,0V43.27A19.78,19.78,0,0,0,67.39,23.49"/></g></g></svg>